<svg xmlns="http://www.w3.org/2000/svg" viewBox="0 0 32 32">
  <rect width="32" height="32" rx="7" fill="#CC1414"/>
  <path d="M21.5 19.8l-2-1.4a.7.7 0 0 0-.5-.1.7.7 0 0 0-.4.2l-.8.7a.3.3 0 0 1-.2.1.4.4 0 0 1-.2-.1 9.5 9.5 0 0 1-1.3-1.1 9.5 9.5 0 0 1-1.1-1.3.4.4 0 0 1-.1-.2c0-.1 0-.2.1-.2l.7-.8a.7.7 0 0 0 .2-.4.7.7 0 0 0-.1-.5l-1.4-2a.7.7 0 0 0-.4-.3 1 1 0 0 0-.5-.1c-.7 0-1.3.3-1.8.8-.4.5-.7 1.1-.7 1.7 0 1.6.6 3.2 1.6 4.6 1 1.4 2.2 2.5 3.6 3.4 1.4 1 3 1.5 4.6 1.5.6 0 1.2-.2 1.7-.6.5-.5.8-1.1.8-1.8 0-.2 0-.4-.1-.5a.7.7 0 0 0-.4-.4z" fill="white"/>
</svg>
